<svg width="83" height="80" viewBox="0 0 83 80" fill="none" xmlns="http://www.w3.org/2000/svg">
<rect width="83" height="80" fill="white"/>
<path d="M35.5 14.5C35.5 16.0818 34.5633 17.5695 32.9352 18.6835C31.3094 19.7959 29.0358 20.5 26.5 20.5C23.9642 20.5 21.6906 19.7959 20.0648 18.6835C18.4367 17.5695 17.5 16.0818 17.5 14.5C17.5 12.9182 18.4367 11.4305 20.0648 10.3165C21.6906 9.2041 23.9642 8.5 26.5 8.5C29.0358 8.5 31.3094 9.2041 32.9352 10.3165C34.5633 11.4305 35.5 12.9182 35.5 14.5Z" fill="#D9D9D9" stroke="black"/>
<path d="M64.5 14.5C64.5 16.0818 63.5633 17.5695 61.9352 18.6835C60.3094 19.7959 58.0358 20.5 55.5 20.5C52.9642 20.5 50.6906 19.7959 49.0648 18.6835C47.4367 17.5695 46.5 16.0818 46.5 14.5C46.5 12.9182 47.4367 11.4305 49.0648 10.3165C50.6906 9.2041 52.9642 8.5 55.5 8.5C58.0358 8.5 60.3094 9.2041 61.9352 10.3165C63.5633 11.4305 64.5 12.9182 64.5 14.5Z" fill="#D9D9D9" stroke="black"/>
<path d="M35.5 66.5C35.5 68.0818 34.5633 69.5695 32.9352 70.6835C31.3094 71.7959 29.0358 72.5 26.5 72.5C23.9642 72.5 21.6906 71.7959 20.0648 70.6835C18.4367 69.5695 17.5 68.0818 17.5 66.5C17.5 64.9182 18.4367 63.4305 20.0648 62.3165C21.6906 61.2041 23.9642 60.5 26.5 60.5C29.0358 60.5 31.3094 61.2041 32.9352 62.3165C34.5633 63.4305 35.5 64.9182 35.5 66.5Z" fill="#D9D9D9" stroke="black"/>
<path d="M64.5 66.5C64.5 68.0818 63.5633 69.5695 61.9352 70.6835C60.3094 71.7959 58.0358 72.5 55.5 72.5C52.9642 72.5 50.6906 71.7959 49.0648 70.6835C47.4367 69.5695 46.5 68.0818 46.5 66.5C46.5 64.9182 47.4367 63.4305 49.0648 62.3165C50.6906 61.2041 52.9642 60.5 55.5 60.5C58.0358 60.5 60.3094 61.2041 61.9352 62.3165C63.5633 63.4305 64.5 64.9182 64.5 66.5Z" fill="#D9D9D9" stroke="black"/>
<rect x="10.5" y="18.5" width="61" height="44" fill="#D9D9D9" stroke="black"/>
<path d="M28.8651 23.5455V41H26.7514V25.7614H26.6491L22.3878 28.5909V26.4432L26.7514 23.5455H28.8651ZM39.5781 41.2386C38.294 41.2386 37.2003 40.8892 36.2969 40.1903C35.3935 39.4858 34.7031 38.4659 34.2259 37.1307C33.7486 35.7898 33.5099 34.1705 33.5099 32.2727C33.5099 30.3864 33.7486 28.7756 34.2259 27.4403C34.7088 26.0994 35.402 25.0767 36.3054 24.3722C37.2145 23.6619 38.3054 23.3068 39.5781 23.3068C40.8509 23.3068 41.9389 23.6619 42.8423 24.3722C43.7514 25.0767 44.4446 26.0994 44.9219 27.4403C45.4048 28.7756 45.6463 30.3864 45.6463 32.2727C45.6463 34.1705 45.4077 35.7898 44.9304 37.1307C44.4531 38.4659 43.7628 39.4858 42.8594 40.1903C41.956 40.8892 40.8622 41.2386 39.5781 41.2386ZM39.5781 39.3636C40.8509 39.3636 41.8395 38.75 42.544 37.5227C43.2486 36.2955 43.6009 34.5455 43.6009 32.2727C43.6009 30.7614 43.4389 29.4744 43.1151 28.4119C42.7969 27.3494 42.3366 26.5398 41.7344 25.983C41.1378 25.4261 40.419 25.1477 39.5781 25.1477C38.3168 25.1477 37.331 25.7699 36.6207 27.0142C35.9105 28.2528 35.5554 30.0057 35.5554 32.2727C35.5554 33.7841 35.7145 35.0682 36.0327 36.125C36.3509 37.1818 36.8082 37.9858 37.4048 38.5369C38.0071 39.0881 38.7315 39.3636 39.5781 39.3636ZM54.5781 41.2386C53.294 41.2386 52.2003 40.8892 51.2969 40.1903C50.3935 39.4858 49.7031 38.4659 49.2259 37.1307C48.7486 35.7898 48.5099 34.1705 48.5099 32.2727C48.5099 30.3864 48.7486 28.7756 49.2259 27.4403C49.7088 26.0994 50.402 25.0767 51.3054 24.3722C52.2145 23.6619 53.3054 23.3068 54.5781 23.3068C55.8509 23.3068 56.9389 23.6619 57.8423 24.3722C58.7514 25.0767 59.4446 26.0994 59.9219 27.4403C60.4048 28.7756 60.6463 30.3864 60.6463 32.2727C60.6463 34.1705 60.4077 35.7898 59.9304 37.1307C59.4531 38.4659 58.7628 39.4858 57.8594 40.1903C56.956 40.8892 55.8622 41.2386 54.5781 41.2386ZM54.5781 39.3636C55.8509 39.3636 56.8395 38.75 57.544 37.5227C58.2486 36.2955 58.6009 34.5455 58.6009 32.2727C58.6009 30.7614 58.4389 29.4744 58.1151 28.4119C57.7969 27.3494 57.3366 26.5398 56.7344 25.983C56.1378 25.4261 55.419 25.1477 54.5781 25.1477C53.3168 25.1477 52.331 25.7699 51.6207 27.0142C50.9105 28.2528 50.5554 30.0057 50.5554 32.2727C50.5554 33.7841 50.7145 35.0682 51.0327 36.125C51.3509 37.1818 51.8082 37.9858 52.4048 38.5369C53.0071 39.0881 53.7315 39.3636 54.5781 39.3636Z" fill="black"/>
<path d="M33.0046 53.2727C33.0046 52.1094 33.1554 51.0399 33.457 50.0643C33.7617 49.0856 34.1956 48.1854 34.7588 47.3636H35.7191C35.4975 47.6683 35.2897 48.0438 35.0958 48.4901C34.905 48.9332 34.7373 49.421 34.5926 49.9535C34.448 50.4828 34.3341 51.0307 34.251 51.5969C34.171 52.1632 34.131 52.7218 34.131 53.2727C34.131 54.0052 34.2018 54.7485 34.3434 55.5025C34.4849 56.2565 34.6757 56.9567 34.9158 57.603C35.1559 58.2493 35.4236 58.7756 35.7191 59.1818H34.7588C34.1956 58.3601 33.7617 57.4614 33.457 56.4858C33.1554 55.5071 33.0046 54.4361 33.0046 53.2727ZM37.0867 56.0611V55.1193L41.2415 48.5455H41.9248V50.0043H41.4631L38.3239 54.9716V55.0455H43.9191V56.0611H37.0867ZM41.537 58V55.7749V55.3363V48.5455H42.6265V58H41.537ZM47.9943 53.2727C47.9943 54.4361 47.8419 55.5071 47.5372 56.4858C47.2356 57.4614 46.8032 58.3601 46.24 59.1818H45.2798C45.5014 58.8771 45.7076 58.5017 45.8984 58.0554C46.0923 57.6122 46.2616 57.1259 46.4062 56.5966C46.5509 56.0642 46.6632 55.5148 46.7432 54.9485C46.8263 54.3791 46.8679 53.8205 46.8679 53.2727C46.8679 52.5402 46.7971 51.797 46.6555 51.043C46.5139 50.2889 46.3231 49.5888 46.0831 48.9425C45.843 48.2962 45.5752 47.7699 45.2798 47.3636H46.24C46.8032 48.1854 47.2356 49.0856 47.5372 50.0643C47.8419 51.0399 47.9943 52.1094 47.9943 53.2727Z" fill="black"/>
</svg>
