<svg width="111" height="80" viewBox="0 0 111 80" fill="none" xmlns="http://www.w3.org/2000/svg">
<g id="brigade_table6">
<rect width="111" height="80" fill="white"/>
<path id="seat1" d="M35.5 14.5C35.5 16.0818 34.5633 17.5695 32.9352 18.6835C31.3094 19.7959 29.0358 20.5 26.5 20.5C23.9642 20.5 21.6906 19.7959 20.0648 18.6835C18.4367 17.5695 17.5 16.0818 17.5 14.5C17.5 12.9182 18.4367 11.4305 20.0648 10.3165C21.6906 9.2041 23.9642 8.5 26.5 8.5C29.0358 8.5 31.3094 9.2041 32.9352 10.3165C34.5633 11.4305 35.5 12.9182 35.5 14.5Z" fill="#D9D9D9" stroke="black"/>
<path id="seat2" d="M64.5 14.5C64.5 16.0818 63.5633 17.5695 61.9352 18.6835C60.3094 19.7959 58.0358 20.5 55.5 20.5C52.9642 20.5 50.6906 19.7959 49.0648 18.6835C47.4367 17.5695 46.5 16.0818 46.5 14.5C46.5 12.9182 47.4367 11.4305 49.0648 10.3165C50.6906 9.2041 52.9642 8.5 55.5 8.5C58.0358 8.5 60.3094 9.2041 61.9352 10.3165C63.5633 11.4305 64.5 12.9182 64.5 14.5Z" fill="#D9D9D9" stroke="black"/>
<path id="seat3" d="M93.5 14.5C93.5 16.0818 92.5633 17.5695 90.9352 18.6835C89.3094 19.7959 87.0358 20.5 84.5 20.5C81.9642 20.5 79.6906 19.7959 78.0648 18.6835C76.4367 17.5695 75.5 16.0818 75.5 14.5C75.5 12.9182 76.4367 11.4305 78.0648 10.3165C79.6906 9.2041 81.9642 8.5 84.5 8.5C87.0358 8.5 89.3094 9.2041 90.9352 10.3165C92.5633 11.4305 93.5 12.9182 93.5 14.5Z" fill="#D9D9D9" stroke="black"/>
<path id="seat4" d="M35.5 66.5C35.5 68.0818 34.5633 69.5695 32.9352 70.6835C31.3094 71.7959 29.0358 72.5 26.5 72.5C23.9642 72.5 21.6906 71.7959 20.0648 70.6835C18.4367 69.5695 17.5 68.0818 17.5 66.5C17.5 64.9182 18.4367 63.4305 20.0648 62.3165C21.6906 61.2041 23.9642 60.5 26.5 60.5C29.0358 60.5 31.3094 61.2041 32.9352 62.3165C34.5633 63.4305 35.5 64.9182 35.5 66.5Z" fill="#D9D9D9" stroke="black"/>
<path id="seat5" d="M64.5 66.5C64.5 68.0818 63.5633 69.5695 61.9352 70.6835C60.3094 71.7959 58.0358 72.5 55.5 72.5C52.9642 72.5 50.6906 71.7959 49.0648 70.6835C47.4367 69.5695 46.5 68.0818 46.5 66.5C46.5 64.9182 47.4367 63.4305 49.0648 62.3165C50.6906 61.2041 52.9642 60.5 55.5 60.5C58.0358 60.5 60.3094 61.2041 61.9352 62.3165C63.5633 63.4305 64.5 64.9182 64.5 66.5Z" fill="#D9D9D9" stroke="black"/>
<path id="seat6" d="M93.5 66.5C93.5 68.0818 92.5633 69.5695 90.9352 70.6835C89.3094 71.7959 87.0358 72.5 84.5 72.5C81.9642 72.5 79.6906 71.7959 78.0648 70.6835C76.4367 69.5695 75.5 68.0818 75.5 66.5C75.5 64.9182 76.4367 63.4305 78.0648 62.3165C79.6906 61.2041 81.9642 60.5 84.5 60.5C87.0358 60.5 89.3094 61.2041 90.9352 62.3165C92.5633 63.4305 93.5 64.9182 93.5 66.5Z" fill="#D9D9D9" stroke="black"/>
<rect id="table" x="10.5" y="18.5" width="90" height="44" fill="#D9D9D9" stroke="black"/>
</g>
</svg>
